<?xml version="1.0"?>
<svg width="87" height="93" xmlns="http://www.w3.org/2000/svg" xmlns:svg="http://www.w3.org/2000/svg" xmlns:xlink="http://www.w3.org/1999/xlink">
 <g class="layer">
  <title>Layer 1</title>
  <path d="m1.74,1.11l81.41,0l0,61.82l-81.41,0l0,-61.82z" fill="white" id="svg_1"/>
  <path d="m1.74,0.67c-1.27,-0.1 0,61.83 -0.43,62.26c-0.1,1.28 81.41,0 81.85,0.44c1.27,0.1 0,-61.83 0.44,-62.26c0.08,-1.27 -81.42,0 -81.86,-0.44zm0.44,0.88l80.54,0l0,60.95l-80.54,0l0,-60.95z" fill="#D5F4FF" id="svg_2"/>
  <path d="m1.74,19.69c-0.54,-0.01 -0.58,0.88 0,0.88c0.46,-0.44 81.93,0.83 81.85,-0.44c0.1,-1.27 -81.41,0 -81.85,-0.44z" fill="#D5F4FF" id="svg_3"/>
  <path d="m1.74,43.37c-0.54,-0.01 -0.58,0.88 0,0.87c0.46,-0.43 81.93,0.83 81.85,-0.44c0.1,-1.27 -81.41,0.01 -81.85,-0.43z" fill="#D5F4FF" id="svg_4"/>
  <path d="m3.55,2.87l4.6,0l0,16.82l-4.6,0l0,-16.82z" fill="#D5F4FF" id="svg_5"/>
  <path d="m3.55,4.12l4.6,0l0,1.27l-4.6,0l0,-1.27z" fill="#B0EBFF" id="svg_6"/>
  <path d="m3.55,8.39l4.6,0l0,8.69l-4.6,0l0,-8.69z" fill="#B0EBFF" id="svg_7"/>
  <path d="m8.99,2.87l4.6,0l0,16.82l-4.6,0l0,-16.82z" fill="#D5F4FF" id="svg_8"/>
  <path d="m8.99,4.12l4.6,0l0,1.27l-4.6,0l0,-1.27z" fill="#B0EBFF" id="svg_9"/>
  <path d="m8.99,8.39l4.6,0l0,8.69l-4.6,0l0,-8.69z" fill="#B0EBFF" id="svg_10"/>
  <path d="m14.43,2.87l4.6,0l0,16.82l-4.6,0l0,-16.82z" fill="#D5F4FF" id="svg_11"/>
  <path d="m14.43,4.12l4.6,0l0,1.27l-4.6,0l0,-1.27z" fill="#B0EBFF" id="svg_12"/>
  <path d="m14.43,8.39l4.6,0l0,8.69l-4.6,0l0,-8.69z" fill="#B0EBFF" id="svg_13"/>
  <path d="m20.08,2.87l4.59,0l0,16.82l-4.59,0l0,-16.82z" fill="#D5F4FF" id="svg_14"/>
  <path d="m20.08,4.12l4.59,0l0,1.27l-4.59,0l0,-1.27z" fill="#B0EBFF" id="svg_15"/>
  <path d="m20.08,8.39l4.59,0l0,8.69l-4.59,0l0,-8.69z" fill="#B0EBFF" id="svg_16"/>
  <path d="m67.55,2.7l4.15,1.96l-7.16,15.21l-4.16,-1.96l7.17,-15.21z" fill="#D5F4FF" id="svg_17"/>
  <path d="m67.01,3.83l4.16,1.96l-0.54,1.14l-4.16,-1.96l0.54,-1.14z" fill="#B0EBFF" id="svg_18"/>
  <path d="m65.19,7.69l4.16,1.96l-3.7,7.85l-4.16,-1.96l3.7,-7.85z" fill="#B0EBFF" id="svg_19"/>
  <path d="m71.74,2.87l4.6,0l0,16.82l-4.6,0l0,-16.82z" fill="#D5F4FF" id="svg_20"/>
  <path d="m71.74,4.12l4.6,0l0,1.27l-4.6,0l0,-1.27z" fill="#B0EBFF" id="svg_21"/>
  <path d="m71.74,8.39l4.6,0l0,8.69l-4.6,0l0,-8.69z" fill="#B0EBFF" id="svg_22"/>
  <path d="m77.17,2.87l4.6,0l0,16.82l-4.6,0l0,-16.82z" fill="#D5F4FF" id="svg_23"/>
  <path d="m77.17,4.12l4.6,0l0,1.27l-4.6,0l0,-1.27z" fill="#B0EBFF" id="svg_24"/>
  <path d="m77.17,8.39l4.6,0l0,8.69l-4.6,0l0,-8.69z" fill="#B0EBFF" id="svg_25"/>
  <path d="m3.55,26.55l4.6,0l0,16.82l-4.6,0l0,-16.82z" fill="#D5F4FF" id="svg_26"/>
  <path d="m3.55,27.8l4.6,0l0,1.27l-4.6,0l0,-1.27z" fill="#B0EBFF" id="svg_27"/>
  <path d="m3.55,32.07l4.6,0l0,8.68l-4.6,0l0,-8.68z" fill="#B0EBFF" id="svg_28"/>
  <path d="m8.99,26.55l4.6,0l0,16.82l-4.6,0l0,-16.82z" fill="#D5F4FF" id="svg_29"/>
  <path d="m8.99,27.8l4.6,0l0,1.27l-4.6,0l0,-1.27z" fill="#B0EBFF" id="svg_30"/>
  <path d="m8.99,32.07l4.6,0l0,8.68l-4.6,0l0,-8.68z" fill="#B0EBFF" id="svg_31"/>
  <path d="m14.43,26.55l4.6,0l0,16.82l-4.6,0l0,-16.82z" fill="#D5F4FF" id="svg_32"/>
  <path d="m14.43,27.8l4.6,0l0,1.27l-4.6,0l0,-1.27z" fill="#B0EBFF" id="svg_33"/>
  <path d="m14.43,32.07l4.6,0l0,8.68l-4.6,0l0,-8.68z" fill="#B0EBFF" id="svg_34"/>
  <path d="m19.87,26.55l4.6,0l0,16.82l-4.6,0l0,-16.82z" fill="#D5F4FF" id="svg_35"/>
  <path d="m19.87,27.8l4.6,0l0,1.27l-4.6,0l0,-1.27z" fill="#B0EBFF" id="svg_36"/>
  <path d="m19.87,32.07l4.6,0l0,8.68l-4.6,0l0,-8.68z" fill="#B0EBFF" id="svg_37"/>
  <path d="m60.86,26.55l4.6,0l0,16.82l-4.6,0l0,-16.82z" fill="#D5F4FF" id="svg_38"/>
  <path d="m60.86,27.8l4.6,0l0,1.27l-4.6,0l0,-1.27z" fill="#B0EBFF" id="svg_39"/>
  <path d="m60.86,32.07l4.6,0l0,8.68l-4.6,0l0,-8.68z" fill="#B0EBFF" id="svg_40"/>
  <path d="m66.3,26.55l4.6,0l0,16.82l-4.6,0l0,-16.82z" fill="#D5F4FF" id="svg_41"/>
  <path d="m66.3,27.8l4.6,0l0,1.27l-4.6,0l0,-1.27z" fill="#B0EBFF" id="svg_42"/>
  <path d="m66.3,32.07l4.6,0l0,8.68l-4.6,0l0,-8.68z" fill="#B0EBFF" id="svg_43"/>
  <path d="m71.74,26.55l4.6,0l0,16.82l-4.6,0l0,-16.82z" fill="#D5F4FF" id="svg_44"/>
  <path d="m71.74,27.8l4.6,0l0,1.27l-4.6,0l0,-1.27z" fill="#B0EBFF" id="svg_45"/>
  <path d="m71.74,32.07l4.6,0l0,8.68l-4.6,0l0,-8.68z" fill="#B0EBFF" id="svg_46"/>
  <path d="m77.17,26.55l4.6,0l0,16.82l-4.6,0l0,-16.82z" fill="#D5F4FF" id="svg_47"/>
  <path d="m77.17,27.8l4.6,0l0,1.27l-4.6,0l0,-1.27z" fill="#B0EBFF" id="svg_48"/>
  <path d="m77.17,32.07l4.6,0l0,8.68l-4.6,0l0,-8.68z" fill="#B0EBFF" id="svg_49"/>
  <path d="m3.55,45.61l4.6,0l0,16.82l-4.6,0l0,-16.82z" fill="#D5F4FF" id="svg_50"/>
  <path d="m3.55,46.86l4.6,0l0,1.27l-4.6,0l0,-1.27z" fill="#B0EBFF" id="svg_51"/>
  <path d="m3.55,51.13l4.6,0l0,8.68l-4.6,0l0,-8.68z" fill="#B0EBFF" id="svg_52"/>
  <path d="m8.99,45.61l4.6,0l0,16.82l-4.6,0l0,-16.82z" fill="#D5F4FF" id="svg_53"/>
  <path d="m8.99,46.86l4.6,0l0,1.27l-4.6,0l0,-1.27z" fill="#B0EBFF" id="svg_54"/>
  <path d="m8.99,51.13l4.6,0l0,8.68l-4.6,0l0,-8.68z" fill="#B0EBFF" id="svg_55"/>
  <path d="m14.43,45.61l4.6,0l0,16.82l-4.6,0l0,-16.82z" fill="#D5F4FF" id="svg_56"/>
  <path d="m14.43,46.86l4.6,0l0,1.27l-4.6,0l0,-1.27z" fill="#B0EBFF" id="svg_57"/>
  <path d="m14.43,51.13l4.6,0l0,8.68l-4.6,0l0,-8.68z" fill="#B0EBFF" id="svg_58"/>
  <path d="m19.87,45.61l4.6,0l0,16.82l-4.6,0l0,-16.82z" fill="#D5F4FF" id="svg_59"/>
  <path d="m19.87,46.86l4.6,0l0,1.27l-4.6,0l0,-1.27z" fill="#B0EBFF" id="svg_60"/>
  <path d="m19.87,51.13l4.6,0l0,8.68l-4.6,0l0,-8.68z" fill="#B0EBFF" id="svg_61"/>
  <path d="m60.86,45.61l4.6,0l0,16.82l-4.6,0l0,-16.82z" fill="#D5F4FF" id="svg_62"/>
  <path d="m60.86,46.86l4.6,0l0,1.27l-4.6,0l0,-1.27z" fill="#B0EBFF" id="svg_63"/>
  <path d="m60.86,51.13l4.6,0l0,8.68l-4.6,0l0,-8.68z" fill="#B0EBFF" id="svg_64"/>
  <path d="m66.3,45.61l4.6,0l0,16.82l-4.6,0l0,-16.82z" fill="#D5F4FF" id="svg_65"/>
  <path d="m66.3,46.86l4.6,0l0,1.27l-4.6,0l0,-1.27z" fill="#B0EBFF" id="svg_66"/>
  <path d="m66.3,51.13l4.6,0l0,8.68l-4.6,0l0,-8.68z" fill="#B0EBFF" id="svg_67"/>
  <path d="m71.74,45.61l4.6,0l0,16.82l-4.6,0l0,-16.82z" fill="#D5F4FF" id="svg_68"/>
  <path d="m71.74,46.86l4.6,0l0,1.27l-4.6,0l0,-1.27z" fill="#B0EBFF" id="svg_69"/>
  <path d="m71.74,51.13l4.6,0l0,8.68l-4.6,0l0,-8.68z" fill="#B0EBFF" id="svg_70"/>
  <path d="m77.17,45.61l4.6,0l0,16.82l-4.6,0l0,-16.82z" fill="#D5F4FF" id="svg_71"/>
  <path d="m77.17,46.86l4.6,0l0,1.27l-4.6,0l0,-1.27z" fill="#B0EBFF" id="svg_72"/>
  <path d="m77.17,51.13l4.6,0l0,8.68l-4.6,0l0,-8.68z" fill="#B0EBFF" id="svg_73"/>
  <path d="m55.42,26.55l4.6,0l0,16.82l-4.6,0l0,-16.82z" fill="#D5F4FF" id="svg_74"/>
  <path d="m55.42,27.8l4.6,0l0,1.27l-4.6,0l0,-1.27z" fill="#B0EBFF" id="svg_75"/>
  <path d="m55.42,32.07l4.6,0l0,8.68l-4.6,0l0,-8.68z" fill="#B0EBFF" id="svg_76"/>
  <path d="m55.42,45.61l4.6,0l0,16.82l-4.6,0l0,-16.82z" fill="#D5F4FF" id="svg_77"/>
  <path d="m55.42,46.86l4.6,0l0,1.27l-4.6,0l0,-1.27z" fill="#B0EBFF" id="svg_78"/>
  <path d="m55.42,51.13l4.6,0l0,8.68l-4.6,0l0,-8.68z" fill="#B0EBFF" id="svg_79"/>
  <path d="m25.37,26.55l4.6,0l0,16.82l-4.6,0l0,-16.82z" fill="#D5F4FF" id="svg_80"/>
  <path d="m25.37,27.8l4.6,0l0,1.27l-4.6,0l0,-1.27z" fill="#B0EBFF" id="svg_81"/>
  <path d="m25.37,32.07l4.6,0l0,8.68l-4.6,0l0,-8.68z" fill="#B0EBFF" id="svg_82"/>
  <path d="m25.37,45.61l4.6,0l0,16.82l-4.6,0l0,-16.82z" fill="#D5F4FF" id="svg_83"/>
  <path d="m25.37,46.86l4.6,0l0,1.27l-4.6,0l0,-1.27z" fill="#B0EBFF" id="svg_84"/>
  <path d="m25.37,51.13l4.6,0l0,8.68l-4.6,0l0,-8.68z" fill="#B0EBFF" id="svg_85"/>
  <path d="m13.9,68c-0.34,0 -0.66,0.08 -0.97,0.22c-0.3,0.15 -0.56,0.35 -0.78,0.61c-0.21,0.26 -0.36,0.56 -0.44,0.88c-0.09,0.33 -0.1,0.66 -0.04,0.99l4.46,0c0.06,-0.33 0.05,-0.67 -0.03,-0.99c-0.09,-0.32 -0.24,-0.62 -0.45,-0.88c-0.22,-0.26 -0.48,-0.47 -0.79,-0.61c-0.3,-0.14 -0.63,-0.22 -0.96,-0.22z" fill="#D7E9F5" id="svg_86"/>
  <path d="m13.86,68.82c0.11,0 0.21,0.02 0.31,0.06c0.1,0.04 0.19,0.09 0.26,0.17c0.08,0.07 0.13,0.16 0.17,0.26c0.04,0.1 0.06,0.2 0.06,0.31l0,21.99c0.01,0.11 0,0.22 -0.03,0.33c-0.04,0.1 -0.09,0.2 -0.17,0.28c-0.07,0.09 -0.16,0.15 -0.27,0.2c-0.1,0.05 -0.21,0.07 -0.32,0.07c-0.11,0 -0.22,-0.02 -0.33,-0.07c-0.1,-0.05 -0.19,-0.11 -0.26,-0.2c-0.08,-0.08 -0.14,-0.18 -0.17,-0.28c-0.03,-0.11 -0.05,-0.22 -0.03,-0.33l0,-22c0,-0.1 0.02,-0.21 0.06,-0.3c0.03,-0.1 0.09,-0.19 0.17,-0.26c0.07,-0.07 0.16,-0.13 0.25,-0.17c0.1,-0.04 0.2,-0.06 0.3,-0.06z" fill="#D7E9F5" id="svg_87"/>
  <path d="m3.82,71.28c-0.36,0.01 -0.52,0.54 -0.3,0.8c-0.32,0.07 -0.45,0.55 -0.24,0.79c-0.31,0.07 -0.45,0.55 -0.24,0.79c-0.31,0.07 -0.45,0.55 -0.23,0.78c-0.32,0.08 -0.46,0.56 -0.24,0.79c-0.32,0.08 -0.46,0.56 -0.24,0.79c-0.09,0.03 -0.16,0.07 -0.22,0.14c-0.05,0.06 -0.09,0.14 -0.11,0.22c-0.02,0.07 -0.02,0.15 -0.01,0.23c0.02,0.07 0.05,0.14 0.1,0.2c-0.32,0.07 -0.46,0.55 -0.24,0.79c-0.32,0.07 -0.46,0.55 -0.24,0.79c-0.38,0.08 -0.49,0.77 -0.08,0.89c0.4,0.08 0.62,-0.52 0.37,-0.79c0.32,-0.07 0.46,-0.55 0.24,-0.79c0.32,-0.07 0.46,-0.55 0.24,-0.79c0.32,-0.07 0.46,-0.55 0.24,-0.79c0.32,-0.07 0.46,-0.55 0.24,-0.79c0.32,-0.07 0.46,-0.55 0.24,-0.79c0.32,-0.07 0.46,-0.55 0.24,-0.79c0.32,-0.07 0.46,-0.55 0.24,-0.78c0.32,-0.08 0.46,-0.56 0.24,-0.79c0.42,-0.09 0.49,-0.88 0,-0.9zm1.52,0c-0.48,0.02 -0.41,0.81 0,0.89c-0.21,0.24 -0.08,0.72 0.24,0.79c-0.21,0.24 -0.08,0.72 0.24,0.79c-0.21,0.24 -0.08,0.72 0.24,0.79c-0.21,0.24 -0.08,0.72 0.24,0.79c-0.21,0.24 -0.08,0.72 0.24,0.79c-0.21,0.24 -0.08,0.72 0.24,0.79c-0.21,0.24 -0.08,0.72 0.24,0.79c-0.22,0.24 -0.08,0.72 0.24,0.79c-0.25,0.27 -0.02,0.87 0.38,0.79c0.4,-0.13 0.3,-0.81 -0.09,-0.89c0.22,-0.24 0.08,-0.72 -0.24,-0.79c0.22,-0.24 0.08,-0.72 -0.24,-0.79c0.05,-0.06 0.09,-0.13 0.1,-0.21c0.02,-0.07 0.01,-0.15 -0.01,-0.22c-0.01,-0.09 -0.05,-0.16 -0.11,-0.23c-0.06,-0.06 -0.13,-0.11 -0.21,-0.13c0.04,-0.06 0.08,-0.13 0.09,-0.21c0.02,-0.07 0.01,-0.15 -0.01,-0.22c-0.01,-0.09 -0.05,-0.16 -0.11,-0.23c-0.06,-0.06 -0.13,-0.1 -0.21,-0.13c0.21,-0.24 0.07,-0.72 -0.24,-0.79c0.21,-0.24 0.08,-0.71 -0.24,-0.79c0.21,-0.23 0.08,-0.71 -0.24,-0.79c0.21,-0.23 0.08,-0.71 -0.24,-0.79c0.23,-0.25 0.06,-0.78 -0.3,-0.79l0,0zm-1.51,0.17c0.28,0.03 0.15,0.6 -0.11,0.55c-0.23,-0.08 -0.12,-0.53 0.11,-0.55zm1.51,0c0.23,0.02 0.33,0.47 0.1,0.55c-0.26,0.05 -0.38,-0.52 -0.1,-0.55zm-1.75,0.79c0.51,0.18 -0.29,1 -0.22,0.23c0.01,-0.06 0.03,-0.11 0.07,-0.15c0.04,-0.04 0.09,-0.07 0.15,-0.08zm1.99,0c0.05,0.01 0.1,0.04 0.14,0.08c0.04,0.04 0.07,0.09 0.08,0.15c0.07,0.77 -0.74,-0.05 -0.22,-0.23l0,0zm-2.23,0.79c0.52,0.18 -0.29,1 -0.22,0.23c0.01,-0.06 0.04,-0.11 0.08,-0.15c0.04,-0.04 0.09,-0.07 0.14,-0.08zm2.47,0c0.06,0.01 0.11,0.04 0.15,0.08c0.04,0.04 0.06,0.09 0.07,0.15c0.07,0.76 -0.73,-0.05 -0.22,-0.23zm-2.71,0.79c0.52,0.18 -0.29,1 -0.22,0.23c0.01,-0.06 0.04,-0.11 0.08,-0.15c0.04,-0.04 0.09,-0.07 0.14,-0.08zm2.95,0c0.06,0.01 0.11,0.04 0.15,0.08c0.04,0.04 0.06,0.09 0.07,0.15c0.07,0.76 -0.73,-0.05 -0.22,-0.23zm-3.19,0.79c0.52,0.18 -0.29,1 -0.22,0.23c0.01,-0.06 0.04,-0.11 0.07,-0.15c0.04,-0.04 0.09,-0.07 0.15,-0.08l0,0zm3.43,0c0.05,0.01 0.11,0.04 0.14,0.08c0.04,0.04 0.07,0.09 0.08,0.15c0.06,0.77 -0.74,-0.05 -0.22,-0.23l0,0zm-3.67,0.79c0.52,0.18 -0.29,0.99 -0.22,0.23c0.01,-0.06 0.04,-0.11 0.08,-0.15c0.04,-0.04 0.09,-0.07 0.14,-0.08l0,0zm3.91,0c0.05,0.01 0.1,0.04 0.14,0.08c0.04,0.04 0.07,0.09 0.08,0.15c0.07,0.76 -0.74,-0.06 -0.22,-0.23zm-4.15,0.79c0.52,0.18 -0.29,0.99 -0.22,0.23c0.01,-0.06 0.04,-0.11 0.08,-0.15c0.04,-0.04 0.09,-0.07 0.14,-0.08l0,0zm4.39,0c0.05,0.01 0.1,0.04 0.14,0.08c0.04,0.04 0.07,0.09 0.08,0.15c0.06,0.76 -0.74,-0.06 -0.22,-0.23zm-4.63,0.79c0.52,0.18 -0.28,0.99 -0.22,0.22c0.01,-0.05 0.04,-0.1 0.08,-0.14c0.04,-0.04 0.09,-0.07 0.14,-0.08zm4.87,0c0.05,0.01 0.1,0.04 0.14,0.08c0.04,0.04 0.07,0.09 0.08,0.14c0.06,0.77 -0.74,-0.05 -0.22,-0.22zm-5.11,0.79c0.52,0.18 -0.28,0.99 -0.22,0.22c0.01,-0.05 0.04,-0.1 0.08,-0.14c0.04,-0.04 0.09,-0.07 0.14,-0.08l0,0zm5.35,0c0.05,0.01 0.1,0.04 0.14,0.08c0.04,0.04 0.07,0.09 0.08,0.14c0.06,0.77 -0.74,-0.04 -0.23,-0.22l0.01,0zm-5.59,0.79c0.51,0.18 -0.29,0.99 -0.22,0.22c0.01,-0.05 0.04,-0.1 0.07,-0.14c0.04,-0.05 0.09,-0.07 0.15,-0.08zm5.82,0c0.06,0.01 0.11,0.03 0.15,0.08c0.04,0.04 0.06,0.09 0.07,0.14c0.07,0.77 -0.73,-0.05 -0.22,-0.22z" fill="#322F4A" id="svg_88"/>
  <path d="m8.84,79.01l-8.84,0c0.02,5.6 8.82,5.59 8.84,0z" fill="#F6BA34" id="svg_89"/>
  <path d="m6.41,79.01c-0.27,2.14 -1.37,3.48 -2.37,4.26c2.55,0.23 4.82,-1.77 4.8,-4.26l-2.43,0z" fill="#EA792F" id="svg_90"/>
  <path d="m23.91,71.28c0.35,0.01 0.52,0.54 0.3,0.8c0.31,0.07 0.45,0.55 0.24,0.79c0.31,0.07 0.45,0.55 0.23,0.79c0.32,0.07 0.46,0.55 0.24,0.78c0.32,0.08 0.46,0.56 0.24,0.79c0.32,0.08 0.46,0.56 0.24,0.79c0.08,0.03 0.16,0.07 0.22,0.14c0.05,0.06 0.09,0.14 0.11,0.22c0.02,0.07 0.02,0.15 0.01,0.23c-0.02,0.07 -0.05,0.14 -0.1,0.2c0.32,0.07 0.46,0.55 0.24,0.79c0.32,0.07 0.46,0.55 0.24,0.79c0.38,0.08 0.49,0.77 0.08,0.89c-0.4,0.08 -0.63,-0.52 -0.38,-0.79c-0.31,-0.07 -0.45,-0.55 -0.23,-0.79c-0.32,-0.07 -0.46,-0.55 -0.24,-0.79c-0.32,-0.07 -0.46,-0.55 -0.24,-0.79c-0.32,-0.07 -0.46,-0.55 -0.24,-0.79c-0.32,-0.07 -0.46,-0.55 -0.24,-0.79c-0.32,-0.07 -0.46,-0.55 -0.24,-0.79c-0.32,-0.07 -0.46,-0.55 -0.24,-0.78c-0.32,-0.08 -0.46,-0.56 -0.24,-0.79c-0.42,-0.09 -0.49,-0.88 0,-0.9zm-1.52,0c0.48,0.02 0.41,0.81 0,0.89c0.21,0.24 0.08,0.72 -0.24,0.79c0.21,0.24 0.08,0.72 -0.24,0.79c0.21,0.24 0.08,0.72 -0.24,0.79c0.21,0.24 0.08,0.72 -0.24,0.79c0.21,0.24 0.08,0.72 -0.24,0.79c0.21,0.24 0.08,0.72 -0.24,0.79c0.21,0.24 0.08,0.72 -0.24,0.79c0.22,0.24 0.08,0.72 -0.24,0.79c0.25,0.27 0.02,0.87 -0.38,0.79c-0.4,-0.13 -0.3,-0.81 0.09,-0.89c-0.22,-0.24 -0.08,-0.72 0.24,-0.79c-0.22,-0.24 -0.08,-0.72 0.23,-0.79c-0.04,-0.06 -0.08,-0.13 -0.09,-0.21c-0.02,-0.07 -0.01,-0.15 0.01,-0.22c0.01,-0.09 0.05,-0.16 0.11,-0.23c0.06,-0.06 0.13,-0.11 0.21,-0.13c-0.04,-0.06 -0.08,-0.13 -0.09,-0.21c-0.02,-0.07 -0.01,-0.15 0.01,-0.22c0.01,-0.09 0.05,-0.16 0.11,-0.23c0.06,-0.06 0.13,-0.1 0.21,-0.13c-0.21,-0.24 -0.08,-0.72 0.24,-0.79c-0.21,-0.24 -0.08,-0.71 0.24,-0.79c-0.21,-0.23 -0.08,-0.71 0.24,-0.79c-0.21,-0.23 -0.08,-0.71 0.24,-0.79c-0.23,-0.25 -0.06,-0.78 0.3,-0.79l0,0zm1.51,0.17c-0.28,0.03 -0.15,0.6 0.11,0.55c0.23,-0.08 0.12,-0.53 -0.11,-0.55zm-1.51,0c-0.23,0.02 -0.33,0.47 -0.1,0.55c0.26,0.05 0.38,-0.52 0.1,-0.55zm1.75,0.79c-0.51,0.18 0.29,1 0.22,0.23c-0.01,-0.06 -0.03,-0.11 -0.07,-0.15c-0.04,-0.04 -0.09,-0.07 -0.15,-0.08zm-1.99,0c-0.06,0.01 -0.11,0.04 -0.14,0.08c-0.04,0.04 -0.07,0.09 -0.08,0.15c-0.07,0.77 0.74,-0.05 0.22,-0.23l0,0zm2.23,0.79c-0.51,0.18 0.29,1 0.22,0.23c-0.01,-0.06 -0.03,-0.11 -0.07,-0.15c-0.04,-0.04 -0.09,-0.07 -0.15,-0.08zm-2.47,0c-0.05,0.01 -0.11,0.04 -0.14,0.08c-0.04,0.04 -0.07,0.09 -0.08,0.15c-0.07,0.76 0.74,-0.05 0.22,-0.23zm2.71,0.79c-0.51,0.18 0.29,1 0.22,0.23c-0.01,-0.06 -0.03,-0.11 -0.07,-0.15c-0.04,-0.04 -0.09,-0.07 -0.15,-0.08zm-2.95,0c-0.05,0.01 -0.1,0.04 -0.14,0.08c-0.04,0.04 -0.07,0.09 -0.08,0.15c-0.07,0.76 0.74,-0.05 0.22,-0.23l0,0zm3.19,0.79c-0.51,0.18 0.29,1 0.22,0.23c-0.01,-0.06 -0.03,-0.11 -0.07,-0.15c-0.04,-0.04 -0.09,-0.07 -0.15,-0.08l0,0zm-3.42,0c-0.06,0.01 -0.11,0.04 -0.15,0.08c-0.04,0.04 -0.07,0.09 -0.07,0.15c-0.07,0.77 0.73,-0.05 0.21,-0.23l0.01,0zm3.66,0.79c-0.51,0.18 0.29,1 0.22,0.23c-0.01,-0.06 -0.03,-0.11 -0.07,-0.15c-0.04,-0.04 -0.09,-0.07 -0.15,-0.08zm-3.9,0c-0.06,0.01 -0.11,0.04 -0.15,0.08c-0.04,0.04 -0.06,0.09 -0.07,0.15c-0.07,0.76 0.73,-0.05 0.22,-0.23zm4.14,0.79c-0.51,0.18 0.29,1 0.22,0.23c-0.01,-0.06 -0.03,-0.11 -0.07,-0.15c-0.04,-0.04 -0.09,-0.07 -0.15,-0.08l0,0zm-4.38,0c-0.06,0.01 -0.11,0.04 -0.15,0.08c-0.04,0.04 -0.06,0.09 -0.07,0.15c-0.07,0.76 0.73,-0.05 0.22,-0.23zm4.62,0.79c-0.51,0.18 0.29,0.99 0.22,0.22c-0.01,-0.05 -0.03,-0.1 -0.07,-0.14c-0.04,-0.04 -0.09,-0.07 -0.15,-0.08l0,0zm-4.86,0c-0.06,0.01 -0.11,0.04 -0.15,0.08c-0.04,0.04 -0.06,0.09 -0.07,0.14c-0.07,0.77 0.73,-0.05 0.22,-0.22zm5.1,0.79c-0.51,0.18 0.29,0.99 0.22,0.22c-0.01,-0.05 -0.04,-0.1 -0.07,-0.14c-0.04,-0.05 -0.1,-0.07 -0.15,-0.08l0,0zm-5.34,0c-0.06,0.01 -0.11,0.04 -0.15,0.08c-0.04,0.04 -0.06,0.09 -0.07,0.14c-0.07,0.77 0.73,-0.04 0.22,-0.22l0,0zm5.59,0.79c-0.52,0.18 0.28,0.99 0.22,0.22c-0.01,-0.05 -0.04,-0.1 -0.08,-0.14c-0.04,-0.05 -0.09,-0.07 -0.14,-0.08zm-5.83,0c-0.05,0.01 -0.1,0.03 -0.14,0.08c-0.04,0.04 -0.07,0.09 -0.08,0.14c-0.06,0.77 0.74,-0.05 0.22,-0.22z" fill="#322F4A" id="svg_91"/>
  <path d="m18.89,79.01l8.84,0c-0.02,5.6 -8.82,5.59 -8.84,0z" fill="#F6BA34" id="svg_92"/>
  <path d="m25.28,79.01c-0.28,2.14 -1.37,3.48 -2.37,4.26c2.55,0.23 4.81,-1.77 4.8,-4.26l-2.43,0z" fill="#EA792F" id="svg_93"/>
  <path d="m11.74,69.56c-0.12,0.37 -0.15,0.76 -0.07,1.14l4.46,0c0.07,-0.38 0.04,-0.77 -0.08,-1.14l-4.31,0z" fill="#C3D2D1" id="svg_94"/>
  <path d="m3.37,70.14c-1.03,-0.02 -1.04,1.6 0,1.59l20.99,0c1.03,0.01 1.03,-1.61 0,-1.59l-20.99,0z" fill="#D7E9F5" id="svg_95"/>
  <path d="m13.07,86.77c0.01,0.12 -0.01,4.84 0.01,4.94l1.57,0c0.02,-0.1 0,-4.83 0.01,-4.94l-1.59,0z" fill="#C3D2D1" id="svg_96"/>
  <path d="m8.21,87.35l11.21,0c1.82,0 1.33,2.4 1.38,3.55c0,0.19 -0.03,0.37 -0.1,0.54c-0.07,0.16 -0.18,0.32 -0.3,0.45c-0.13,0.12 -0.29,0.23 -0.45,0.3c-0.17,0.07 -0.35,0.1 -0.53,0.1l-11.21,0c-0.18,0 -0.36,-0.03 -0.53,-0.1c-0.17,-0.07 -0.32,-0.18 -0.45,-0.3c-0.13,-0.13 -0.23,-0.29 -0.3,-0.45c-0.07,-0.17 -0.11,-0.35 -0.1,-0.54c0.06,-1.15 -0.45,-3.55 1.38,-3.55z" fill="#D7E9F5" id="svg_97"/>
  <path d="m13.07,70.73l0,1.51l1.59,0l0,-1.51l-1.59,0z" fill="#C3D2D1" id="svg_98"/>
  <path d="m3.37,70.14c-1.03,-0.02 -1.04,1.6 0,1.59l20.99,0c1.03,0.01 1.03,-1.61 0,-1.59l-20.99,0z" fill="#D7E9F5" id="svg_99"/>
  <path d="m8.52,88c-0.37,0 -0.37,0.58 0,0.58l10.29,0l0,2.51c0,0.04 0.01,0.08 0.02,0.11c0.01,0.04 0.03,0.08 0.06,0.11c0.03,0.02 0.06,0.05 0.1,0.06c0.03,0.02 0.07,0.03 0.11,0.03c0.04,0 0.08,-0.01 0.12,-0.03c0.04,-0.01 0.07,-0.04 0.1,-0.06c0.02,-0.03 0.04,-0.07 0.06,-0.11c0.01,-0.03 0.02,-0.07 0.01,-0.11l0,-2.8c0,-0.08 -0.03,-0.15 -0.08,-0.21c-0.05,-0.05 -0.13,-0.08 -0.21,-0.08l-10.58,0z" fill="#C3D2D1" id="svg_100"/>
  <path d="m84.94,86.74l-21.46,0l-2,5.71l21.46,0l2,-5.71z" fill="#C3D2D1" id="svg_101"/>
  <path d="m63.48,86.74l21.46,0l2.01,5.71l-21.47,0l-2,-5.71z" fill="#D7E9F5" id="svg_102"/>
  <path d="m66.02,87.97l0.88,3.05l2.09,0l-0.15,-0.52l-1.46,0l-0.73,-2.53l-0.63,0zm3.39,0l-0.21,3.05l0.64,0l0.03,-0.61l1.14,0l0.38,0.61l0.64,0l-1.94,-3.05l-0.68,0zm1.87,0l1.74,3.05l0.57,0l-0.19,-2.38l1.2,2.38l0.57,0l-0.03,-3.05l-0.67,0l0.2,2.29l-1.15,-2.29l-0.62,0l0.18,2.29l-1.13,-2.29l-0.67,0zm3.97,0l1.57,1.92l0.33,1.13l0.62,0l-0.32,-1.13l0.41,-1.92l-0.7,0l-0.2,1.35l-1.01,-1.35l-0.7,0zm2.99,0l0.88,3.05l2.28,0l-0.15,-0.52l-1.65,0l-0.23,-0.79l1.46,0l-0.15,-0.52l-1.46,0l-0.2,-0.7l1.58,0l-0.15,-0.52l-2.21,0zm2.78,0l0.88,3.05l0.63,0l-0.35,-1.21c1.56,-0.08 0.94,0.2 1.55,1.21l0.67,0l-0.03,-0.11c-0.46,-0.37 -0.24,-1.23 -0.95,-1.36c0.68,-0.28 0.22,-1.3 -0.33,-1.5c-0.27,-0.15 -1.75,-0.05 -2.07,-0.08zm0.78,0.52c0.41,0.05 1.21,-0.19 1.32,0.39c0.24,0.64 -0.78,0.35 -1.09,0.41l-0.23,-0.8zm-11.85,0.2l0.74,1.19l-0.8,0l0.06,-1.19z" fill="#22263F" id="svg_103"/>
  <use id="svg_105" transform="matrix(1.00795 0 0 1.00795 -49.0827 -60.1906)" x="73.32" xlink:href="#svg_104" y="60.94"/>
 </g>
 <defs>
  <symbol height="91" id="svg_104" viewBox="0 0 39 91" width="39" xmlns="http://www.w3.org/2000/svg">
   <path d="m31.75,73.29l-25.79,1.08l-0.57,16.08l14.39,0l0.19,-1.56l1.06,-0.65c0,0 0.19,1.4 0.3,2.21l11.82,0c-0.25,-7.71 0.24,-12.64 -1.41,-17.16l0.01,0z" fill="#3D395A"/>
   <path d="m31.29,39.55c3.02,3.43 8.55,17.29 5.24,21.18c-0.75,0.62 -4.95,-3.56 -4.95,-3.56l-1.18,-15.05l0.89,-2.57z" fill="#3D395A"/>
   <path d="m14.02,77.46c0,0 9.73,3.06 17.58,-0.44c0.43,-8.23 -6.32,-38.83 -6.32,-38.83l-6.28,-1.48l-7.03,4.47l2.05,36.28z" fill="#E8F1F6"/>
   <path d="m17.31,39.05c-0.03,0.21 1,2.84 2.45,3.55c0,0 -1.3,18.83 -1.23,19c0.08,0.16 1.35,6.39 1.35,6.39l5.45,4.87l3.31,-7.18l-6.81,-23.3c0,0 0.87,-0.47 1.28,-3.64c-1.59,-1.84 -4.01,-1.32 -4.01,-1.32l-1.79,1.63z" fill="#04B6F5"/>
   <path d="m23.22,36.19c2.09,13 4.64,34.29 8.46,46.53c0,0 1.01,0.33 2.15,-0.64l-2.54,-42.53c0,0 -3.58,-3.33 -8.07,-3.36z" fill="#3D395A"/>
   <path d="m23.48,36.19c0.85,2.34 1.82,5.91 3.52,7.78c-0.4,0.95 -1.22,12.01 0.03,9.88c-0.19,-2.74 0.15,-7.15 0.46,-10.19c-1.55,-1.65 -2.59,-5.24 -3.38,-7.42c-0.21,-0.03 -0.42,-0.04 -0.63,-0.05z" fill="#22263F"/>
   <path d="m30.68,46.35c0.15,-0.22 0.76,3.24 1.02,6.01c0.13,1.19 0.21,2.25 0.25,3.15c0.12,2.84 -0.18,2.88 -0.55,0.05c-0.13,-0.85 -0.27,-1.97 -0.4,-3.13c-0.35,-2.74 -0.52,-6.28 -0.32,-6.08z" fill="#22263F"/>
   <path d="m35.55,50.52c-3.09,0.49 -3.12,0.16 -7.28,2.34c0,0 1.68,3.15 1.73,3.19c0.01,0.01 0.39,-0.02 0.9,-0.07c1.01,1.51 2.96,0.74 4,-0.41c1.23,-0.13 3.99,-0.47 3.44,-1.87c0.57,-0.17 0.65,-1.08 -0.57,-1.54c0.45,-0.55 -0.62,-1.15 -1.21,-1.1c-0.07,-0.1 -0.47,-0.53 -1.01,-0.54z" fill="#FEC3B3"/>
   <path d="m21.09,65.89l-5.81,-26.1l-4.14,-3.42c0,0 -3.65,0.83 -5.12,1.97c-3.41,6.71 -1.65,36.12 -2.31,42.01c0,0 5.18,3.68 12.65,2.78l4.73,-17.24z" fill="#3D395A"/>
   <path d="m11.14,36.38c0,0 -0.2,0.04 -0.48,0.11c0.8,2.18 1.89,6.53 1.97,8.51c1.56,1.48 5.55,10.6 6.05,12.12c0.02,0.04 0.05,0.08 0.09,0.11c0.03,0.03 0.08,0.06 0.13,0.06c0.04,0.01 0.09,0.01 0.14,0c0.05,-0.02 0.09,-0.04 0.12,-0.07c-0.94,-3.5 -3.94,-9.79 -6.02,-12.51c0.03,-2.1 -1.15,-6.02 -1.87,-8.22l-0.13,-0.11z" fill="#22263F"/>
   <path d="m36.53,60.73c-3.2,3.26 -11.4,1.69 -15.98,-0.42c0.84,-3.91 0.95,-5.86 1.18,-5.89c0.23,-0.04 8,0.54 9.62,0.69c3.31,0.36 5.01,3.04 5.18,5.62z" fill="#3D395A"/>
   <path d="m35.91,58.37c-0.56,-0.43 -1.27,-1.69 -2.28,-2.15c-0.98,-0.68 -2.77,-0.79 -3.45,-1.22c0.81,-0.41 2.67,-0.05 3.8,0.6c1.06,0.63 2.04,1.94 1.92,2.77l0.01,0z" fill="#22263F"/>
   <path d="m11.72,33.5c-0.44,0.82 -1.01,3.41 -0.83,3.5c0.17,0.09 4.06,4.84 4.06,4.84l4.17,-3.76l2.6,-0.22l2.13,1.78c0,0 0.57,-2.97 -0.24,-4.41c-3.02,-0.72 -11.89,-1.73 -11.89,-1.73z" fill="#E8F1F6"/>
   <path d="m6.02,38.35c-2.74,1.73 -3.44,1.79 -3.37,3.97c0.07,2.19 1.86,10.37 3.13,13.8c1.27,3.44 1.32,4.16 2.4,5.03c1.09,0.88 7.09,-0.47 7.55,-1.8c0.18,-4.1 -6.91,-18.43 -9.71,-21l0,0z" fill="#3D395A"/>
   <path d="m11.33,46.74c0.65,0.38 2,3.37 2.53,4.7c0.72,1.85 1.74,4.39 1.63,5.77c-0.68,-1.07 -1.38,-3.43 -2.16,-5.2l-0.13,-0.31c-0.49,-1.42 -1.8,-4.17 -1.87,-4.96z" fill="#22263F"/>
   <path d="m20.22,55.07c-5.17,-4.64 -8.89,-4.91 -12.26,-0.86c-0.34,0.74 -0.04,1.34 0.35,1.27c-0.08,0.9 0.23,1.2 0.87,1.14c0.05,0.91 0.38,1.01 1.21,0.74c0.33,1.23 9.42,-2.35 9.83,-2.29z" fill="#FEC3B3"/>
   <path d="m34.84,61.91c-1.79,2.07 -12.67,0.31 -14.41,-1.51c2.33,0.68 7,1.68 9.82,1.72c1.7,0.15 3.54,0.17 4.59,-0.21z" fill="#22263F"/>
   <path d="m10.41,58.47c4.76,-3.72 12.93,-5.47 17.08,-6.3c0,0 4.69,0.59 3.79,3.69c-4.54,4.21 -22.06,12.56 -23.83,3.9c0.07,-0.51 2.96,-1.29 2.96,-1.29z" fill="#3D395A"/>
   <path d="m10.6,58.58c3.46,-2.64 9.32,-4.53 13.93,-5.57c1.27,-0.23 2.2,-0.79 3.4,-0.6c1.23,0.32 2.79,0.87 3.26,2.1c0.21,0.58 0.1,0.99 0.14,1c0.04,0.01 0.25,-0.37 0.09,-1.07c-0.39,-1.43 -2.03,-2.11 -3.38,-2.51c-1.2,-0.29 -2.36,0.31 -3.64,0.52c-4.56,1.09 -10.87,2.8 -13.8,6.12l0,0.01z" fill="#22263F"/>
   <path d="m30.7,56.16c-1.26,2.24 -14.37,9.73 -20.51,7.16c-3.23,-1.87 -4.31,-6.36 -5.34,-9.48c-0.59,-1.93 -1.84,-7.24 -1.68,-7.88c0.29,0.65 1.52,5.76 2.22,7.72c1.05,2.9 2.15,7.21 5.08,9c6.29,2.34 18.49,-4.97 20.23,-6.52z" fill="#22263F"/>
   <path d="m19.77,42.59c0.31,-0.14 1.87,-0.3 2.05,-0.2c0.13,0.42 -2.14,0.65 -2.05,0.2z" fill="#0081AF"/>
   <path d="m8.76,70.94c-0.38,0 -0.38,0.59 0,0.58c0.38,0.05 8.43,2.48 6.67,0.87c-1.96,-0.11 -4.68,-1.02 -6.67,-1.45z" fill="#22263F"/>
   <path d="m33.16,70.96c-0.48,0.1 -1.47,0.23 -1.41,0.21c-0.37,0.04 -0.31,0.63 0.07,0.58c-0.05,0.01 0.83,-0.1 1.38,-0.2l-0.04,-0.59z" fill="#22263F"/>
   <path d="m17.9,77.63c0.29,-0.15 -0.59,3.98 -1.17,5.26c-0.15,0.31 -0.23,0.88 -0.57,1.06c-0.95,0.23 -1.89,-0.03 -2.85,-0.12c-2.34,-0.29 -7.48,-1.57 -8.55,-2.83c2.33,0.86 8.01,2.41 11.13,2.34c-0.01,-0.01 -0.04,0.03 -0.1,0.1c0.12,-0.23 0.24,-0.53 0.34,-0.78c0.57,-1.23 1.74,-5.26 1.76,-5.02l0.01,-0.01z" fill="#22263F"/>
   <path d="m30.26,76.92c0.03,0 0.04,0.03 0.07,0.05c0.03,0.06 0.06,0.12 0.08,0.18c0.07,0.14 0.15,0.36 0.24,0.62c0.49,1.41 1,3.45 1.36,5.01c-0.08,-0.1 -0.1,-0.14 -0.11,-0.11c0.42,0.11 2.83,-1.14 1.54,-0.15c-0.45,0.22 -1.46,1.04 -1.91,0.4c-0.5,-1.66 -0.91,-3.35 -1.23,-5.06c-0.04,-0.28 -0.07,-0.5 -0.08,-0.66c-0.01,-0.07 -0.01,-0.13 0,-0.2c0,-0.03 0,-0.06 0.03,-0.07l0.01,-0.01z" fill="#22263F"/>
   <path d="m23.78,86.72c0.15,0.72 -3.32,2.58 -3.82,2.14c-0.05,-0.15 0.86,-0.54 1.9,-1.11c1.04,-0.56 1.82,-1.13 1.92,-1.02l0,-0.01z" fill="#22263F"/>
   <path d="m11.55,31.85l0,2.35c2.3,2.59 7.61,4.54 9.43,5.24c1.37,-1.04 1.38,-3.74 1.38,-3.91c0,0 -0.39,-1.12 -0.49,-1.22c-2.54,-0.69 -7.74,-1.9 -10.32,-2.46z" fill="#FEC3B3"/>
   <path d="m12.83,32.14c-0.72,0.04 -0.82,0.04 -1.28,0.28l0,1.41c2.7,3.18 7.05,4.53 10.64,3.28c0.28,-1.56 0.23,-1.68 -0.34,-2.8c-2.23,-0.59 -6.78,-1.7 -9.02,-2.17z" fill="#F37584"/>
   <path d="m4.88,24.9c-4.52,-4.71 -5.64,-12.73 -1.71,-14.83c2.06,-14.52 34.51,-13.06 28.86,4.14c-1.21,3.23 -21.62,12.6 -21.62,12.6l-5.53,-1.91z" fill="#642435"/>
   <path d="m26.61,7.91c-0.73,-0.01 -1.33,0.16 -1.72,0.55c-4.12,4.5 -8.31,-3.5 -12.94,1.71c0.48,1.69 -0.02,5.18 -3.1,6.48c0.56,2.73 0.32,4.12 -0.82,5.37c-7.24,-3.01 -8.31,11.15 1.43,9.15c8.12,10.49 27.18,3.1 22.34,-9.68c0.46,-1.53 1.7,-7.74 -1.13,-12.16c-1.4,-0.86 -2.89,-1.38 -4.06,-1.42z" fill="#FEC3B3"/>
   <path d="m8.81,28.52c-1.12,0.53 -5.24,0.3 -5.06,-3.03c2.86,-4.56 5.58,0.23 5.06,3.03z" fill="#FAB3AA"/>
   <path d="m31.07,18.42l-4.95,-1.92c1.65,-2.63 5.41,-0.93 4.95,1.92l0,0z" fill="#642435"/>
   <path d="m13.02,18.17l5.67,-1.81c-1.5,-2.48 -6.03,-1.32 -5.67,1.81z" fill="#642435"/>
   <path d="m26.54,21.79c-0.1,1.69 2.46,1.85 2.58,0.16c0.09,-1.69 -2.47,-1.85 -2.58,-0.16z" fill="#642435"/>
   <path d="m14.68,22.16c-0.1,1.68 2.47,1.85 2.58,0.16c0.11,-1.69 -2.47,-1.85 -2.58,-0.16z" fill="#642435"/>
   <path d="m8.86,28.67c0.11,0 0.29,-1.02 0,-2.56c-0.33,-2.81 -3.58,-3.88 -4.92,-1.23c-0.37,0.83 -0.25,0.88 0.27,0.17c1.39,-1.96 3.68,-1.14 4.11,1.19c0.38,1.4 0.42,2.43 0.53,2.43l0.01,0z" fill="#F37584"/>
   <path d="m8.45,25.7c-0.06,-0.55 -1.18,-0.77 -1.81,-0.43c-0.65,0.28 -1.42,1.13 -1.25,1.65c1.11,-0.81 1.42,-1.51 3.06,-1.22z" fill="#F37584"/>
   <path d="m23.61,23.98c1.07,0.03 1.13,0.39 1.21,0.65c0,0.6 -2.78,0.74 -2.86,0.21c-0.02,-0.36 0.75,-0.82 1.65,-0.86z" fill="#F37584"/>
   <path d="m18.85,28c0.78,0.2 1.95,0.83 3.08,0.86c1.42,0.15 3.83,-0.26 3.54,0.05c-0.08,0.26 -1.6,1.1 -3.62,0.92c-1.14,-0.06 -3.19,-1 -3,-1.82l0,-0.01z" fill="#F37584"/>
  </symbol>
 </defs>
</svg>