<svg width="16" height="22" viewBox="0 0 16 22" fill="none" xmlns="http://www.w3.org/2000/svg">
<path d="M3.05657 1.41807L4.22357 1.06631C5.54607 0.667673 6.95907 1.31191 7.52543 2.57174L8.4271 4.57746C8.90983 5.65129 8.65544 6.91329 7.79438 7.71624L6.30008 9.1097C6.25641 9.15042 6.22875 9.20544 6.22213 9.26479C6.17777 9.66193 6.447 10.4353 7.06726 11.5097C7.51831 12.2909 7.92656 12.8388 8.27405 13.1469C8.51615 13.3616 8.64943 13.408 8.70617 13.3911L10.7165 12.7765C11.8421 12.4324 13.0619 12.8428 13.7506 13.7973L15.0313 15.5723C15.8374 16.6895 15.6925 18.2308 14.6922 19.1781L13.8058 20.0175C12.8494 20.9232 11.4879 21.2608 10.2191 20.9066C7.46502 20.1379 4.99571 17.8138 2.78383 13.9827C0.568887 10.1463 -0.208306 6.84186 0.508146 4.07007C0.836015 2.80158 1.80214 1.79619 3.05657 1.41807ZM3.48947 2.85425C2.73681 3.08112 2.15714 3.68435 1.96042 4.44544C1.35777 6.77696 2.04662 9.70581 4.08287 13.2327C6.1164 16.7549 8.30535 18.8151 10.6224 19.4619C11.3836 19.6743 12.2006 19.4718 12.7744 18.9284L13.6608 18.089C14.1154 17.6584 14.1813 16.9578 13.8149 16.4499L12.5342 14.675C12.2211 14.2411 11.6667 14.0546 11.155 14.211L9.1397 14.8271C7.96999 15.1758 6.90831 14.2344 5.76822 12.2597C4.99992 10.9289 4.64183 9.90024 4.73139 9.09829C4.77779 8.68286 4.97137 8.29775 5.27708 8.01267L6.77139 6.61921C7.16278 6.25423 7.27841 5.68059 7.05898 5.19249L6.15732 3.18677C5.89988 2.61412 5.25761 2.32129 4.65647 2.50248L3.48947 2.85425Z" fill="white"/>
</svg>
